<svg width="24" height="24" viewBox="0 0 24 24" fill="none" xmlns="http://www.w3.org/2000/svg">
<g clip-path="url(#clip0_107_257)">
<g clip-path="url(#clip1_107_257)">
<path d="M12.1305 10.9641L8.98798 6.39966H7.31787L11.2022 12.0448L11.6796 12.7363L15.0273 17.6005H16.6975L12.6066 11.6569L12.1305 10.9641Z" fill="#F2F2F2"/>
<path d="M20.2429 0H3.75712C1.68271 0 0 1.68271 0 3.75712V20.2429C0 22.3186 1.68271 24 3.75712 24H20.2429C22.3186 24 24 22.3173 24 20.2429V3.75712C24 1.68145 22.3173 0 20.2429 0ZM14.5864 18.4393L14.337 18.0765L11.1139 13.3949L6.77743 18.4405H5.70811L10.6378 12.7034L6.62755 6.87568L5.72322 5.562H9.42997L9.67935 5.92474L12.6959 10.3066L15.8623 6.62125L16.778 5.562H17.8473L13.1732 11.0006L17.3901 17.1268L18.2944 18.4405H14.5877L14.5864 18.4393Z" fill="#F2F2F2"/>
</g>
</g>
<defs>
<clipPath id="clip0_107_257">
<rect width="24" height="24" fill="white"/>
</clipPath>
<clipPath id="clip1_107_257">
<rect width="24" height="24" fill="white"/>
</clipPath>
</defs>
</svg>
