<svg width="24" height="24" viewBox="0 0 24 24" fill="none" xmlns="http://www.w3.org/2000/svg">
<g clip-path="url(#clip0_107_261)">
<path d="M20.7273 0H3.27273C1.46525 0 0 1.46525 0 3.27273V20.7273C0 22.5347 1.46525 24 3.27273 24H20.7273C22.5347 24 24 22.5347 24 20.7273V3.27273C24 1.46525 22.5347 0 20.7273 0Z" fill="white"/>
<path d="M8.6456 6.54545C8.6456 6.95001 8.52563 7.34547 8.30088 7.68185C8.07612 8.01822 7.75666 8.28039 7.3829 8.43521C7.00915 8.59002 6.59787 8.63053 6.20109 8.55161C5.80432 8.47268 5.43985 8.27787 5.15379 7.99181C4.86773 7.70575 4.67292 7.34128 4.59399 6.9445C4.51507 6.54772 4.55557 6.13645 4.71039 5.76269C4.8652 5.38894 5.12738 5.06948 5.46375 4.84472C5.80012 4.61996 6.19559 4.5 6.60014 4.5C7.14263 4.5 7.6629 4.7155 8.0465 5.0991C8.4301 5.4827 8.6456 6.00297 8.6456 6.54545ZM8.18196 9.95455V18.9914C8.18232 19.058 8.1695 19.1241 8.14424 19.1858C8.11897 19.2475 8.08177 19.3036 8.03475 19.3509C7.98774 19.3981 7.93185 19.4356 7.87029 19.4612C7.80873 19.4868 7.74272 19.5 7.67605 19.5H5.52014C5.45348 19.5002 5.38743 19.4872 5.32581 19.4618C5.26418 19.4363 5.20819 19.399 5.16105 19.3518C5.11391 19.3047 5.07655 19.2487 5.05112 19.1871C5.02569 19.1254 5.01269 19.0594 5.01287 18.9927V9.95455C5.01287 9.82001 5.06632 9.69098 5.16145 9.59585C5.25658 9.50072 5.38561 9.44727 5.52014 9.44727H7.67605C7.81035 9.44763 7.93903 9.50124 8.03387 9.59633C8.1287 9.69142 8.18196 9.82024 8.18196 9.95455ZM19.4511 14.6591V19.0336C19.4512 19.0949 19.4393 19.1557 19.4159 19.2123C19.3925 19.269 19.3582 19.3205 19.3149 19.3638C19.2715 19.4071 19.22 19.4415 19.1634 19.4649C19.1067 19.4882 19.046 19.5002 18.9847 19.5H16.6665C16.6052 19.5002 16.5445 19.4882 16.4878 19.4649C16.4312 19.4415 16.3797 19.4071 16.3363 19.3638C16.293 19.3205 16.2586 19.269 16.2353 19.2123C16.2119 19.1557 16.2 19.0949 16.2001 19.0336V14.7941C16.2001 14.1614 16.3856 12.0232 14.5461 12.0232C13.1211 12.0232 12.8306 13.4864 12.7733 14.1436V19.0336C12.7733 19.1562 12.7251 19.2738 12.6391 19.361C12.5532 19.4483 12.4363 19.4982 12.3138 19.5H10.0747C10.0135 19.5 9.95293 19.4879 9.89643 19.4645C9.83992 19.441 9.7886 19.4066 9.7454 19.3633C9.7022 19.32 9.66798 19.2686 9.64469 19.212C9.6214 19.1554 9.60951 19.0948 9.60969 19.0336V9.915C9.60951 9.85382 9.6214 9.79321 9.64469 9.73663C9.66798 9.68006 9.7022 9.62864 9.7454 9.58531C9.7886 9.54199 9.83992 9.50762 9.89643 9.48416C9.95293 9.46071 10.0135 9.44864 10.0747 9.44864H12.3138C12.4375 9.44864 12.5561 9.49777 12.6435 9.58523C12.731 9.67269 12.7801 9.79131 12.7801 9.915V10.7032C13.3092 9.90955 14.0933 9.29727 15.7665 9.29727C19.4729 9.29727 19.4511 12.7582 19.4511 14.6591Z" fill="#8A5EFF"/>
</g>
<defs>
<clipPath id="clip0_107_261">
<rect width="24" height="24" fill="white"/>
</clipPath>
</defs>
</svg>
