<svg width="50" height="67" viewBox="0 0 50 67" fill="none" xmlns="http://www.w3.org/2000/svg">
<g clip-path="url(#clip0_107_248)">
<path d="M24.9889 35.7214C31.1666 35.7214 36.1746 30.7236 36.1746 24.5585C36.1746 18.3933 31.1666 13.3955 24.9889 13.3955C18.8112 13.3955 13.8032 18.3933 13.8032 24.5585C13.8032 30.7236 18.8112 35.7214 24.9889 35.7214Z" fill="#FFF500"/>
<path fill-rule="evenodd" clip-rule="evenodd" d="M24.9888 0C11.2081 0 0 11.1853 0 24.938C0 41.928 15.8613 59.7887 21.5213 65.5488C23.4452 67.4688 26.5101 67.4688 28.434 65.5488C34.094 59.7887 49.9553 41.928 49.9553 24.938C50 11.1853 38.7919 0 24.9888 0ZM24.9888 40.1866C16.3535 40.1866 9.32886 33.1763 9.32886 24.5585C9.32886 15.9407 16.3535 8.93036 24.9888 8.93036C33.6242 8.93036 40.6488 15.9407 40.6488 24.5585C40.6488 33.1763 33.6242 40.1866 24.9888 40.1866Z" fill="white"/>
</g>
<defs>
<clipPath id="clip0_107_248">
<rect width="50" height="67" fill="white"/>
</clipPath>
</defs>
</svg>
