<svg width="62" height="63" viewBox="0 0 62 63" fill="none" xmlns="http://www.w3.org/2000/svg">
<g clip-path="url(#clip0_107_243)">
<path d="M61.2942 24.9586L50.3397 15.9496V9.84438C50.3397 8.76783 49.4715 7.90375 48.3987 7.90375H40.5499L32.2281 1.04782C31.5153 0.45997 30.4847 0.45997 29.7719 1.04782L21.4431 7.89667H12.9167C11.8438 7.89667 10.9827 8.76783 10.9827 9.8373V16.4949L0.705829 24.9586C0.254098 25.3269 0 25.8864 0 26.4672V56.6389C0 60.0527 2.75979 62.8149 6.16188 62.822H55.8381C59.2402 62.822 61.9929 60.0527 62 56.6389V26.4601C62 25.8793 61.7388 25.3269 61.2942 24.9586ZM50.3397 20.9782L57.0027 26.4601L50.3397 31.9349V20.9782ZM31 5.07072L34.4444 7.90375H27.5556L31 5.07072ZM14.8577 11.7921H46.4647V35.1221L31.1623 47.7007L14.8577 34.4634V11.785V11.7921ZM10.9827 21.5377V31.3117L5.00433 26.453L10.9827 21.5377ZM58.125 56.646C58.125 57.9138 57.1016 58.9408 55.8381 58.9408H6.16188C4.89845 58.9408 3.875 57.9138 3.875 56.646V30.5397L29.9483 51.7166C30.6612 52.2973 31.6847 52.2902 32.3905 51.7095L58.1179 30.568V56.646H58.125Z" fill="white"/>
<path d="M41.6582 20.1564C41.6582 21.233 39.5407 22.1042 36.9362 22.1042H24.1607C21.5562 22.1042 19.4387 21.233 19.4316 20.1635C19.4316 19.087 21.5421 18.2158 24.1466 18.2158H36.9291C39.5336 18.2158 41.6511 19.087 41.6511 20.1564H41.6582Z" fill="#FFF500"/>
<path d="M41.6582 25.603C41.6582 26.6795 39.5407 27.5507 36.9362 27.5507H24.1607C21.5562 27.5507 19.4387 26.6795 19.4316 25.6101C19.4316 24.5335 21.5421 23.6624 24.1466 23.6624H36.9291C39.5336 23.6624 41.6511 24.5335 41.6511 25.603H41.6582Z" fill="#FFF500"/>
<path d="M41.6582 31.0495C41.6582 32.1261 39.5407 32.9972 36.9362 32.9972H24.1607C21.5562 32.9972 19.4387 32.1261 19.4316 31.0566C19.4316 29.98 21.5421 29.1089 24.1466 29.1089H36.9291C39.5336 29.1089 41.6511 29.98 41.6511 31.0495H41.6582Z" fill="#FFF500"/>
</g>
<defs>
<clipPath id="clip0_107_243">
<rect width="62" height="62.2133" fill="white" transform="translate(0 0.608643)"/>
</clipPath>
</defs>
</svg>
