<svg width="60" height="59" viewBox="0 0 60 59" fill="none" xmlns="http://www.w3.org/2000/svg">
<path d="M30.9839 0.87085C14.9817 0.87085 1.96651 13.7158 1.96651 29.5087C1.96651 34.3384 3.20946 39.1039 5.56521 43.3235L0.0988285 56.374C-0.0898916 56.83 -0.00529297 57.3438 0.326594 57.7163C0.58039 57.9989 0.9318 58.153 1.30273 58.153C1.41987 58.153 1.5305 58.1402 1.64764 58.1081L16.2181 54.1711C20.6823 56.7786 25.7713 58.153 30.9839 58.153C46.986 58.153 60.0012 45.308 60.0012 29.5151C60.0012 13.7222 46.9795 0.87085 30.9839 0.87085ZM30.9839 55.5776C26.0706 55.5776 21.268 54.2289 17.1032 51.6856C16.8949 51.5571 16.6607 51.4929 16.4199 51.4929C16.3027 51.4929 16.1921 51.5057 16.075 51.5379L3.52182 54.9289L8.2138 43.7217C8.36998 43.3492 8.33744 42.9317 8.1357 42.5849C5.79948 38.6222 4.56954 34.1008 4.56954 29.5023C4.56954 15.1352 16.4134 3.43985 30.9839 3.43985C45.5544 3.43985 57.3982 15.1352 57.3982 29.5087C57.3982 43.8823 45.5479 55.5776 30.9839 55.5776Z" fill="white"/>
<path d="M45.3015 35.6036L39.0087 32.3603C38.5727 32.1355 38.0391 32.174 37.6421 32.4566L32.3384 36.2459C29.3644 34.0623 27.5749 32.1162 27.5423 32.0841C27.5228 32.0649 27.4968 32.0456 27.4772 32.0263C27.4577 32.007 27.4447 31.9878 27.4252 31.9685C27.3991 31.9492 26.1822 30.8831 24.6399 28.8536L28.5705 23.4973C28.8568 23.1055 28.8959 22.5788 28.6681 22.1485L25.3818 15.938C25.0499 15.3086 24.269 15.0645 23.6313 15.3921L17.807 18.3593C17.2473 18.6419 16.974 19.2841 17.1562 19.875C19.8438 28.571 25.0369 33.3108 25.6551 33.8567C26.3254 34.5825 32.4816 41.0563 41.3189 43.7217C41.4425 43.7602 41.5727 43.7795 41.6963 43.7795C42.1714 43.7795 42.6269 43.5226 42.8547 43.0858L45.8612 37.3377C46.1866 36.7083 45.9393 35.9376 45.308 35.6101L45.3015 35.6036ZM19.974 20.1383L23.6638 18.2565L25.9805 22.6302L23.0716 26.5929C21.9783 24.846 20.859 22.688 19.974 20.1319V20.1383ZM41.0456 40.9279C38.6573 40.0994 36.4837 38.969 34.6096 37.7937L38.5141 34.9999L42.9458 37.2863L41.0456 40.9279Z" fill="#FFF500"/>
</svg>
